<?xml version="1.0" encoding="UTF-8"?>
<svg id="Camada_1" xmlns="http://www.w3.org/2000/svg" version="1.1" viewBox="0 0 800 800">
  <!-- Generator: Adobe Illustrator 29.7.1, SVG Export Plug-In . SVG Version: 2.1.1 Build 8)  -->
  <defs>
    <style>
      .st0 {
        fill: #fff;
      }

      .st1 {
        fill: #e44332;
      }
    </style>
  </defs>
  <path class="st1" d="M700.01,0H99.99C44.87.12.19,44.8,0,100v600c0,55,44.99,100,99.99,100h600.01c55,0,99.99-45,99.99-100V100C800,45,755.01,0,700.01,0"/>
  <g>
    <path class="st0" d="M90.04,271.77c7.43-4.33,166.9-97.02,170.55-99.16,3.65-2.12,3.84-8.64-.27-11-4.08-2.35-11.84-6.8-14.71-8.51-4.11-2.26-9.1-2.2-13.15.16-2.04,1.19-138.31,80.33-142.86,82.93-5.48,3.13-12.2,3.18-17.63,0L0,193.96v35.9c17.5,10.31,61.07,35.93,71.63,41.96,6.3,3.58,12.33,3.5,18.43-.04"/>
    <path class="st0" d="M90.04,339.65c7.43-4.34,166.9-97.02,170.55-99.16,3.65-2.12,3.84-8.64-.27-11-4.08-2.35-11.84-6.8-14.71-8.51-4.11-2.26-9.1-2.2-13.15.16-2.04,1.19-138.31,80.33-142.86,82.93-5.48,3.13-12.2,3.18-17.63,0L0,261.83v35.9c17.5,10.31,61.07,35.93,71.63,41.96,6.3,3.58,12.33,3.5,18.43-.04"/>
    <path class="st0" d="M90.04,411.76c7.43-4.34,166.9-97.02,170.55-99.16,3.65-2.12,3.84-8.64-.27-11-4.08-2.35-11.84-6.8-14.71-8.51-4.11-2.26-9.1-2.2-13.15.16-2.04,1.19-138.31,80.34-142.86,82.93-5.48,3.13-12.2,3.18-17.63,0L0,333.95v35.9c17.5,10.31,61.07,35.93,71.63,41.96,6.3,3.58,12.33,3.5,18.43-.04"/>
  </g>
  <path class="st0" d="M662.96,704.21c7.93-.08,15.65-2.47,22.26-6.86,6.59-4.39,11.77-10.61,14.89-17.9,2.1-4.94,3.2-10.24,3.23-15.62v-220.77c0-10.71-4.25-20.98-11.82-28.56-7.57-7.57-17.85-11.82-28.56-11.82s-20.98,4.25-28.56,11.82c-7.57,7.57-11.82,17.85-11.82,28.56v120.63l-188.16-197.9c-3.7-3.97-8.16-7.15-13.1-9.35-4.96-2.21-10.3-3.39-15.73-3.49s-10.81.9-15.83,2.94-9.59,5.06-13.42,8.88-6.86,8.4-8.88,13.42c-2.04,5.02-3.04,10.42-2.94,15.83.1,5.43,1.28,10.77,3.49,15.72,2.21,4.96,5.39,9.42,9.35,13.11l188.16,197.9h-131.1c-10.71,0-20.98,4.25-28.56,11.82s-11.82,17.85-11.82,28.56,4.25,20.98,11.82,28.56c7.57,7.57,17.85,11.82,28.56,11.82l228.54,2.7h0Z"/>
</svg>