<?xml version="1.0" encoding="UTF-8"?>
<svg id="Camada_1" xmlns="http://www.w3.org/2000/svg" version="1.1" viewBox="0 0 510.96 204.08">
  <!-- Generator: Adobe Illustrator 29.7.1, SVG Export Plug-In . SVG Version: 2.1.1 Build 8)  -->
  <defs>
    <style>
      .st0 {
        fill: #fff;
      }

      .st1 {
        fill: #e54332;
      }

      .st2 {
        fill: #1f1f1f;
      }

      .st3 {
        fill: #de493a;
      }
    </style>
  </defs>
  <g>
    <path class="st1" d="M178.57,0H25.51C11.45.03.05,11.43,0,25.51v153.06c0,14.03,11.48,25.51,25.51,25.51h153.06c14.03,0,25.51-11.48,25.51-25.51V25.51c0-14.03-11.47-25.51-25.5-25.51"/>
    <g>
      <path class="st0" d="M22.97,69.33c1.9-1.1,42.58-24.75,43.51-25.3.93-.54.98-2.2-.07-2.81-1.04-.6-3.02-1.73-3.75-2.17-1.05-.58-2.32-.56-3.35.04-.52.3-35.28,20.49-36.44,21.16-1.4.8-3.11.81-4.5,0L0,49.48v9.16c4.46,2.63,15.58,9.17,18.27,10.7,1.61.91,3.15.89,4.7-.01"/>
      <path class="st0" d="M22.97,86.64c1.9-1.11,42.58-24.75,43.51-25.3.93-.54.98-2.2-.07-2.81-1.04-.6-3.02-1.73-3.75-2.17-1.05-.58-2.32-.56-3.35.04-.52.3-35.28,20.49-36.44,21.16-1.4.8-3.11.81-4.5,0L0,66.79v9.16c4.46,2.63,15.58,9.17,18.27,10.7,1.61.91,3.15.89,4.7-.01"/>
      <path class="st0" d="M22.97,105.04c1.9-1.11,42.58-24.75,43.51-25.3.93-.54.98-2.2-.07-2.81-1.04-.6-3.02-1.73-3.75-2.17-1.05-.58-2.32-.56-3.35.04-.52.3-35.28,20.49-36.44,21.16-1.4.8-3.11.81-4.5,0L0,85.19v9.16c4.46,2.63,15.58,9.17,18.27,10.7,1.61.91,3.15.89,4.7-.01"/>
    </g>
    <path class="st0" d="M169.12,179.64c2.02-.02,3.99-.63,5.68-1.75,1.68-1.12,3-2.71,3.8-4.57.54-1.26.82-2.61.82-3.98v-56.32c0-2.73-1.08-5.35-3.02-7.29-1.93-1.93-4.55-3.02-7.29-3.02s-5.35,1.08-7.29,3.02c-1.93,1.93-3.02,4.55-3.02,7.29v30.77l-48-50.48c-.94-1.01-2.08-1.82-3.34-2.39-1.27-.56-2.63-.86-4.01-.89s-2.76.23-4.04.75-2.45,1.29-3.42,2.27-1.75,2.14-2.27,3.42c-.52,1.28-.78,2.66-.75,4.04.03,1.39.33,2.75.89,4.01.56,1.27,1.37,2.4,2.39,3.34l48,50.48h-33.44c-2.73,0-5.35,1.08-7.29,3.02-1.93,1.93-3.02,4.55-3.02,7.29s1.08,5.35,3.02,7.29c1.93,1.93,4.55,3.02,7.29,3.02l58.3.69h0Z"/>
  </g>
  <g>
    <path class="st3" d="M270.11,63.15c0,1.73.3,3.41.89,5.02.59,1.62,1.45,3.04,2.6,4.28,1.15,1.24,2.53,2.23,4.14,2.97,1.61.74,3.45,1.11,5.49,1.11s3.87-.37,5.48-1.11c3.14-1.4,5.57-4.02,6.74-7.26.58-1.6.87-3.28.87-5.02s-.29-3.41-.87-5.02c-.58-1.58-1.46-3.04-2.6-4.27-1.17-1.26-2.57-2.27-4.14-2.98-1.73-.77-3.6-1.15-5.49-1.12-2.04,0-3.87.38-5.48,1.12-1.61.74-2.99,1.73-4.14,2.98-1.15,1.23-2.03,2.69-2.61,4.27-.59,1.61-.88,3.29-.88,5.03h0ZM258.96,63.15c0-3.53.64-6.74,1.91-9.62,1.2-2.79,2.96-5.3,5.16-7.39,2.23-2.08,4.85-3.69,7.71-4.74,3.04-1.12,6.25-1.69,9.48-1.67,3.35,0,6.51.56,9.48,1.67,2.86,1.05,5.48,2.66,7.71,4.74,2.2,2.09,3.96,4.61,5.16,7.39,1.27,2.88,1.91,6.09,1.91,9.62s-.64,6.74-1.91,9.62c-1.2,2.79-2.96,5.3-5.16,7.39-2.23,2.08-4.85,3.69-7.71,4.74-3.03,1.13-6.24,1.69-9.48,1.67-3.24.02-6.45-.54-9.48-1.67-2.86-1.04-5.48-2.66-7.71-4.74-2.2-2.09-3.96-4.6-5.16-7.39-1.27-2.88-1.91-6.09-1.91-9.62h0ZM323.83,63.17c0,1.73.29,3.41.88,5.02.59,1.62,1.45,3.04,2.6,4.28,1.15,1.24,2.53,2.23,4.14,2.97,1.61.74,3.44,1.11,5.48,1.11s3.87-.37,5.49-1.11c3.14-1.4,5.57-4.02,6.74-7.26.58-1.61.88-3.31.87-5.02,0-1.73-.29-3.41-.87-5.02-1.17-3.23-3.6-5.85-6.74-7.25-1.73-.77-3.6-1.15-5.49-1.12-2.04,0-3.87.38-5.48,1.12-1.56.71-2.97,1.72-4.14,2.98-1.15,1.24-2.01,2.66-2.6,4.27-.59,1.61-.89,3.29-.89,5.03h0ZM350.23,78.78h-.19c-1.61,2.73-3.77,4.71-6.5,5.95-2.78,1.25-5.79,1.88-8.83,1.86-3.47,0-6.55-.6-9.25-1.81-2.63-1.16-4.99-2.86-6.92-4.98-1.95-2.15-3.44-4.68-4.37-7.44-1.01-2.96-1.51-6.07-1.48-9.2-.03-3.14.51-6.26,1.58-9.21.98-2.74,2.48-5.26,4.41-7.44,1.91-2.11,4.23-3.81,6.83-4.97,2.67-1.21,5.58-1.82,8.74-1.82,2.11,0,3.97.22,5.58.65,1.61.44,3.03.99,4.27,1.68,2.07,1.09,3.87,2.61,5.3,4.45h.28v-24.58c0-1.11.88-2.43,2.43-2.43h6.3c1.46,0,2.43,1.22,2.43,2.43v61.1c0,1.55-1.31,2.43-2.43,2.43h-5.73c-1.34-.01-2.42-1.09-2.44-2.42,0,0,0-4.27,0-4.27ZM379.4,63.15c0,1.73.3,3.41.89,5.02.59,1.62,1.45,3.04,2.6,4.28,1.17,1.25,2.57,2.27,4.14,2.97,1.61.74,3.44,1.11,5.49,1.11s3.87-.37,5.48-1.11c3.14-1.4,5.57-4.02,6.74-7.26.58-1.6.87-3.28.87-5.02s-.29-3.41-.87-5.02c-1.17-3.23-3.61-5.84-6.74-7.25-1.72-.77-3.6-1.15-5.48-1.12-2.04,0-3.88.38-5.49,1.12-1.61.74-2.99,1.73-4.14,2.98-1.15,1.24-2.01,2.66-2.6,4.27-.59,1.61-.89,3.29-.89,5.03ZM368.25,63.15c0-3.53.64-6.74,1.91-9.62,1.2-2.79,2.96-5.3,5.16-7.39,2.23-2.08,4.85-3.69,7.71-4.74,3.04-1.12,6.25-1.69,9.49-1.67,3.34,0,6.51.56,9.48,1.67,2.86,1.05,5.49,2.66,7.72,4.74,2.2,2.09,3.96,4.61,5.16,7.39,1.27,2.88,1.91,6.09,1.91,9.62s-.64,6.74-1.91,9.62c-1.2,2.79-2.96,5.3-5.16,7.39-2.23,2.08-4.85,3.69-7.72,4.74-3.03,1.13-6.25,1.69-9.48,1.67-3.24.02-6.45-.54-9.48-1.67-2.86-1.04-5.49-2.66-7.71-4.74-2.2-2.09-3.96-4.6-5.16-7.39-1.27-2.88-1.91-6.09-1.91-9.62ZM422.4,25.69c0-1.8.67-3.36,2-4.7,1.34-1.33,3.03-2,5.07-2s3.77.64,5.16,1.91,2.09,2.86,2.09,4.79c.04,1.83-.73,3.58-2.09,4.79-1.39,1.27-3.12,1.91-5.16,1.91s-3.73-.67-5.07-2c-1.33-1.33-2-2.89-2-4.69ZM468.44,53.2c-1.11,0-1.93-.84-2.07-1.21-.93-2.43-3.88-3.34-6.27-3.34-3.76,0-6.71,1.74-6.71,4.74s2.86,3.5,4.62,4.03c1.94.59,5.64,1.39,7.68,1.87,2.02.47,3.97,1.19,5.81,2.14,5.92,3.08,6.76,7.91,6.76,10.83,0,10.75-10.65,14.31-18.04,14.31-5.7,0-16.4-.86-18.75-11.73-.23-1.06.71-2.68,2.42-2.68h6.16c1.21,0,2.03.88,2.27,1.58.79,2.18,3.31,3.83,7.55,3.83,4.55,0,7.24-1.81,7.24-4.21,0-1.55-.88-2.93-2.03-3.71-3.45-2.34-11.98-2.6-16.62-5.07-1.78-.94-6.23-3.1-6.23-10.45,0-10.14,9.22-14.41,17.31-14.41,11.94,0,16.32,7.54,16.81,10.34.27,1.54-.59,3.14-2.33,3.14h-5.59ZM479.18,47.68v-4.62c0-1.1.87-2.42,2.41-2.42h5.95v-11.33c0-1.21.82-1.95,1.44-2.22l6.35-2.77c1.86-.76,3.36.77,3.36,2.24v14.08h9.84c1.52,0,2.43,1.33,2.43,2.42v4.62c-.04,1.32-1.1,2.39-2.42,2.43h-9.85v19.53c0,2.23-.06,3.97.79,5.26.78,1.18,1.93,1.62,4.23,1.62.66,0,1.25-.11,1.74-.28,1.1-.42,2.35.03,2.92,1.07.73,1.41,1.56,2.95,2.14,4.05.64,1.21.12,2.77-1.05,3.34-1.89.92-4.5,1.66-8.09,1.66-2.97,0-4.66-.32-6.54-.98-1.86-.68-3.5-1.84-4.76-3.36-1.09-1.33-1.63-3.11-2.03-5.1-.41-1.98-.5-4.38-.5-6.99v-19.82h-5.93c-1.56,0-2.42-1.34-2.42-2.44ZM223.97,47.68v-4.62c0-1.1.87-2.42,2.41-2.42h6.79v-11.33c0-1.21.82-1.95,1.45-2.22l6.35-2.77c1.86-.76,3.36.77,3.36,2.24v14.08h9.84c1.52,0,2.43,1.33,2.43,2.42v4.62c-.04,1.32-1.1,2.39-2.43,2.43h-9.84v19.53c0,2.23-.06,3.97.79,5.26.78,1.18,1.93,1.62,4.23,1.62.66,0,1.24-.11,1.74-.28,1.1-.42,2.34.04,2.92,1.07.73,1.41,1.56,2.95,2.14,4.05.64,1.21.12,2.77-1.05,3.34-1.89.92-4.51,1.66-8.09,1.66-2.97,0-4.66-.32-6.54-.98-1.86-.68-3.5-1.84-4.77-3.36-1.09-1.33-1.63-3.11-2.03-5.1-.41-1.98-.5-4.38-.5-6.99v-19.82h-6.78c-1.56,0-2.43-1.34-2.43-2.44ZM426.33,85.48h6.31c1.34,0,2.42-1.09,2.42-2.43v-39.98c0-1.34-1.09-2.42-2.42-2.43h-6.31c-1.34,0-2.42,1.09-2.42,2.43v39.98c0,1.34,1.09,2.43,2.42,2.43h0Z"/>
    <g>
      <path class="st2" d="M237.78,173.11c-.88.86-1.95,1.28-3.21,1.28s-2.31-.43-3.16-1.28c-.86-.86-1.28-1.91-1.28-3.17v-54.65c0-1.14.41-2.12,1.24-2.95s1.81-1.24,2.95-1.24,2.14.41,2.99,1.24c.86.83,1.31,1.81,1.37,2.95v1.28c0,.06.03.09.09.09s.11-.03.17-.09c2.11-2.34,4.19-3.98,6.24-4.92,2.05-.94,4.45-1.41,7.18-1.41,5.42,0,9.76,2.02,13.04,6.07,3.28,4.05,4.92,9.72,4.92,17.02s-1.7,12.69-5.09,16.85c-3.39,4.16-7.69,6.24-12.87,6.24s-9.41-1.82-13-5.47c-.06-.06-.11-.08-.17-.08s-.09.03-.09.08v18.99c0,1.25-.44,2.31-1.33,3.17ZM239.11,126.92v12.83c0,2.62,1.1,4.92,3.29,6.88,2.19,1.97,4.8,2.95,7.83,2.95,3.42,0,6.13-1.37,8.13-4.11,2-2.74,2.99-6.79,2.99-12.15,0-10.83-3.71-16.25-11.12-16.25-3.02,0-5.63.98-7.83,2.95-2.2,1.97-3.29,4.26-3.29,6.88Z"/>
      <path class="st2" d="M284.48,92.79c.94-.91,2.04-1.37,3.29-1.37s2.35.46,3.29,1.37c.94.91,1.41,2.02,1.41,3.34s-.47,2.42-1.41,3.34c-.94.91-2.04,1.37-3.29,1.37s-2.35-.46-3.29-1.37c-.94-.91-1.41-2.02-1.41-3.34s.47-2.42,1.41-3.34ZM291.07,154.2c-.94.91-2.04,1.37-3.29,1.37s-2.35-.46-3.29-1.37c-.94-.91-1.41-2.02-1.41-3.34v-35.07c0-1.31.47-2.42,1.41-3.34.94-.91,2.04-1.37,3.29-1.37s2.35.46,3.29,1.37c.94.91,1.41,2.03,1.41,3.34v35.07c0,1.31-.47,2.42-1.41,3.34Z"/>
      <path class="st2" d="M315.49,154.29c-.86.86-1.91,1.28-3.17,1.28s-2.32-.43-3.21-1.28c-.88-.86-1.33-1.91-1.33-3.16v-35.84c0-1.14.41-2.12,1.24-2.95s1.81-1.24,2.95-1.24,2.12.41,2.95,1.24c.83.83,1.27,1.81,1.33,2.95l.09,1.28c0,.06.03.09.08.09s.11-.03.17-.09c4.05-4.22,8.67-6.33,13.86-6.33s8.98,1.47,11.38,4.41c2.39,2.94,3.59,7.74,3.59,14.41v22.15c0,1.2-.43,2.22-1.28,3.08-.86.86-1.88,1.28-3.08,1.28s-2.24-.43-3.12-1.28c-.88-.86-1.33-1.88-1.33-3.08v-20.87c0-5.13-.63-8.62-1.88-10.48-1.25-1.85-3.54-2.78-6.84-2.78-2.68,0-5.2,1.18-7.57,3.55s-3.55,4.89-3.55,7.57v22.92c0,1.25-.43,2.31-1.28,3.16Z"/>
    </g>
  </g>
</svg>